HIERARCHY
ROOT hip
{
  OFFSET 0 0 0
  CHANNELS 6 Xposition Yposition Zposition Zrotation Yrotation Xrotation
  JOINT abdomen
  {
    OFFSET 0 20.6881 -0.73152
    CHANNELS 3 Zrotation Xrotation Yrotation
    JOINT chest
    {
      OFFSET 0 11.7043 -0.48768
      CHANNELS 3 Zrotation Xrotation Yrotation
      JOINT neck
      {
        OFFSET 0 22.1894 -2.19456
        CHANNELS 3 Zrotation Xrotation Yrotation
        JOINT head
        {
          OFFSET -0.24384 7.07133 1.2192
          CHANNELS 3 Zrotation Xrotation Yrotation
          JOINT leftEye
          {
            OFFSET 4.14528 8.04674 8.04672
            CHANNELS 3 Zrotation Xrotation Yrotation
            End Site
            {
              OFFSET 1 0 0
            }
          }
          JOINT rightEye
          {
            OFFSET -3.6576 8.04674 8.04672
            CHANNELS 3 Zrotation Xrotation Yrotation
            End Site
            {
              OFFSET 1 0 0
            }
          }
        }
      }
      JOINT rCollar
      {
        OFFSET -2.68224 19.2634 -4.8768
        CHANNELS 3 Zrotation Xrotation Yrotation
        JOINT rShldr
        {
          OFFSET -8.77824 -1.95073 1.46304
          CHANNELS 3 Zrotation Xrotation Yrotation
          JOINT rForeArm
          {
            OFFSET -28.1742 -1.7115 0.48768
            CHANNELS 3 Zrotation Xrotation Yrotation
            JOINT rHand
            {
              OFFSET -22.5879 0.773209 7.07136
              CHANNELS 3 Zrotation Xrotation Yrotation
              JOINT rThumb1
              {
                OFFSET -1.2192 -0.487915 3.41376
                CHANNELS 3 Zrotation Xrotation Yrotation
                JOINT rThumb2
                {
                  OFFSET -3.37035 -0.52449 3.41376
                  CHANNELS 3 Zrotation Xrotation Yrotation
                  End Site
                  {
                    OFFSET -1.78271 -1.18214 1.43049
                  }
                }
              }
              JOINT rIndex1
              {
                OFFSET -7.75947 0.938293 5.60832
                CHANNELS 3 Zrotation Xrotation Yrotation
                JOINT rIndex2
                {
                  OFFSET -2.54057 -0.884171 1.56538
                  CHANNELS 3 Zrotation Xrotation Yrotation
                  End Site
                  {
                    OFFSET -1.62519 -0.234802 1.16502
                  }
                }
              }
              JOINT rMid1
              {
                OFFSET -8.24714 1.18213 3.41376
                CHANNELS 3 Zrotation Xrotation Yrotation
                JOINT rMid2
                {
                  OFFSET -3.10165 -0.590103 1.0647
                  CHANNELS 3 Zrotation Xrotation Yrotation
                  End Site
                  {
                    OFFSET -2.48547 -0.328903 0.83742
                  }
                }
              }
              JOINT rRing1
              {
                OFFSET -8.82822 0.546677 1.51678
                CHANNELS 3 Zrotation Xrotation Yrotation
                JOINT rRing2
                {
                  OFFSET -2.60934 -0.819778 -0.0198488
                  CHANNELS 3 Zrotation Xrotation Yrotation
                  End Site
                  {
                    OFFSET -2.33842 -0.294052 0.168128
                  }
                }
              }
              JOINT rPinky1
              {
                OFFSET -8.27202 -0.0477905 -0.4584
                CHANNELS 3 Zrotation Xrotation Yrotation
                JOINT rPinky2
                {
                  OFFSET -1.82734 -0.647385 -0.700984
                  CHANNELS 3 Zrotation Xrotation Yrotation
                  End Site
                  {
                    OFFSET -1.69225 -0.51767 -0.607171
                  }
                }
              }
            }
          }
        }
      }
      JOINT lCollar
      {
        OFFSET 2.68224 19.2634 -4.8768
        CHANNELS 3 Zrotation Xrotation Yrotation
        JOINT lShldr
        {
          OFFSET 8.77824 -1.95073 1.46304
          CHANNELS 3 Zrotation Xrotation Yrotation
          JOINT lForeArm
          {
            OFFSET 28.1742 -1.7115 0.48768
            CHANNELS 3 Zrotation Xrotation Yrotation
            JOINT lHand
            {
              OFFSET 22.5879 0.773209 7.07136
              CHANNELS 3 Zrotation Xrotation Yrotation
              JOINT lThumb1
              {
                OFFSET 1.2192 -0.487915 3.41376
                CHANNELS 3 Zrotation Xrotation Yrotation
                JOINT lThumb2
                {
                  OFFSET 3.37035 -0.52449 3.41376
                  CHANNELS 3 Zrotation Xrotation Yrotation
                  End Site
                  {
                    OFFSET 1.78271 -1.18214 1.43049
                  }
                }
              }
              JOINT lIndex1
              {
                OFFSET 7.75947 0.938293 5.60832
                CHANNELS 3 Zrotation Xrotation Yrotation
                JOINT lIndex2
                {
                  OFFSET 2.54057 -0.884171 1.56538
                  CHANNELS 3 Zrotation Xrotation Yrotation
                  End Site
                  {
                    OFFSET 1.62519 -0.234802 1.16502
                  }
                }
              }
              JOINT lMid1
              {
                OFFSET 8.24714 1.18213 3.41376
                CHANNELS 3 Zrotation Xrotation Yrotation
                JOINT lMid2
                {
                  OFFSET 3.10165 -0.590103 1.0647
                  CHANNELS 3 Zrotation Xrotation Yrotation
                  End Site
                  {
                    OFFSET 2.48547 -0.328903 0.83742
                  }
                }
              }
              JOINT lRing1
              {
                OFFSET 8.82822 0.546677 1.51678
                CHANNELS 3 Zrotation Xrotation Yrotation
                JOINT lRing2
                {
                  OFFSET 2.60934 -0.819778 -0.0198488
                  CHANNELS 3 Zrotation Xrotation Yrotation
                  End Site
                  {
                    OFFSET 2.33842 -0.294052 0.168128
                  }
                }
              }
              JOINT lPinky1
              {
                OFFSET 8.27202 -0.0477905 -0.4584
                CHANNELS 3 Zrotation Xrotation Yrotation
                JOINT lPinky2
                {
                  OFFSET 1.82734 -0.647385 -0.700984
                  CHANNELS 3 Zrotation Xrotation Yrotation
                  End Site
                  {
                    OFFSET 1.69225 -0.51767 -0.607171
                  }
                }
              }
            }
          }
        }
      }
    }
  }
  JOINT rButtock
  {
    OFFSET -8.77824 4.35084 1.2192
    CHANNELS 3 Zrotation Xrotation Yrotation
    JOINT rThigh
    {
      OFFSET 0 -1.70687 -2.19456
      CHANNELS 3 Zrotation Xrotation Yrotation
      JOINT rShin
      {
        OFFSET 0 -36.8199 0.73152
        CHANNELS 3 Zrotation Xrotation Yrotation
        JOINT rFoot
        {
          OFFSET 0.73152 -45.1104 -5.12064
          CHANNELS 3 Zrotation Xrotation Yrotation
          End Site
          {
            OFFSET -1.1221 -3.69964 12.103
          }
        }
      }
    }
  }
  JOINT lButtock
  {
    OFFSET 8.77824 4.35084 1.2192
    CHANNELS 3 Zrotation Xrotation Yrotation
    JOINT lThigh
    {
      OFFSET 0 -1.70687 -2.19456
      CHANNELS 3 Zrotation Xrotation Yrotation
      JOINT lShin
      {
        OFFSET 0 -36.8199 0.73152
        CHANNELS 3 Zrotation Xrotation Yrotation
        JOINT lFoot
        {
          OFFSET -0.73152 -45.1104 -5.12064
          CHANNELS 3 Zrotation Xrotation Yrotation
          End Site
          {
            OFFSET 1.1221 -3.69964 12.103
          }
        }
      }
    }
  }
}
MOTION
Frames:	8
Frame Time:	0.03333
0.0 0.0 0.0 0.0 0.0 0.0 0.0 0.0 0.0 0.0 0.0 0.0 0.0 0.0 0.0 0.0 0.0 0.0 0.0 0.0 0.0 0.0 0.0 0.0 0.0 0.0 0.0 0.0 0.0 0.0 0.0 0.0 0.0 0.0 0.0 0.0 0.0 0.0 0.0 0.0 0.0 0.0 0.0 0.0 0.0 0.0 0.0 0.0 0.0 0.0 0.0 0.0 0.0 0.0 0.0 0.0 0.0 0.0 0.0 0.0 0.0 0.0 0.0 0.0 0.0 0.0 0.0 0.0 0.0 0.0 0.0 0.0 0.0 0.0 0.0 0.0 0.0 0.0 0.0 0.0 0.0 0.0 0.0 0.0 0.0 0.0 0.0 0.0 0.0 0.0 0.0 0.0 0.0 0.0 0.0 0.0 0.0 0.0 0.0 0.0 0.0 0.0 0.0 0.0 0.0 0.0 0.0 0.0 0.0 0.0 0.0 0.0 0.0 0.0 0.0 0.0 0.0 0.0 0.0 0.0 0.0 0.0 0.0 0.0 0.0 0.0 0.0 0.0 0.0 0.0 0.0 0.0
-0.0009 4.7804 -0.0041 0.042087 -71.502289 -1.642422 0.705214 3.207848 62.350372 -21.830939 47.908193 -86.339793 32.633818 40.329325 -87.008318 -143.916051 34.360598 146.863406 42.895309 -22.997738 -54.752811 37.324485 -11.98734 -34.536914 -18.589109 -31.907205 -166.930349 -157.458432 33.358937 159.258264 -177.124801 18.462107 155.805635 25.360009 -32.455393 -66.812873 177.394603 22.191733 -138.469854 134.211688 38.024034 -123.238758 -19.694164 6.073957 -117.096093 174.495238 -24.758706 -73.91569 3.767989 -15.543066 79.46575 169.083951 1.787256 -50.428644 5.648569 9.548865 -77.494469 117.321765 84.435775 82.409896 -3.33608 13.150504 -64.523961 52.033429 31.953451 166.385811 24.162527 -57.858298 73.943296 -12.642117 -25.885033 -6.383634 174.860762 62.244157 14.532652 25.924053 52.013999 139.005706 5.885398 20.670885 55.631733 56.052276 10.105324 -35.698069 124.69712 26.254738 62.121032 108.098373 57.41685 167.417869 -179.257868 -44.562132 3.626652 -48.309288 -54.553733 157.495557 -179.331504 -77.875552 -0.332252 172.252549 30.111557 1.727081 3.504149 -73.381427 -167.500617 -178.662841 16.738181 -20.871964 153.172227 39.82423 -180.0 145.084469 -34.178994 -22.023596 7.365953 -10.675259 57.067751 156.432239 57.459424 29.295058 -48.021429 48.087826 -119.127802 10.320774 63.457843 -5.76734 6.078522 -3.345798 61.046683 111.660436 23.185882 73.554329
-0.0082 6.422600000000001 0.07730000000000001 -93.647265 81.244812 -92.399832 8.040747 15.117159 96.881457 -76.963519 -13.463125 -53.295678 120.136724 65.062116 161.122239 -66.383713 -16.052401 61.211914 9.585807 -6.259023 -66.214465 -1.865565 0.942243 -53.591024 -64.453649 -15.256967 -101.808488 -167.729512 -60.981504 -146.682101 15.07045 79.530544 -172.900741 178.424279 9.938945 130.382453 -175.681127 -13.696307 98.342966 -28.620674 -26.658836 30.492684 -5.650631 -11.974585 -7.890058 -5.616658 -0.742033 -144.434569 128.911418 2.96426 -66.83598 77.282496 -49.745498 -161.192924 83.850441 26.966481 -45.803728 -56.113763 -3.940154 3.165847 -29.318861 -36.367482 -25.24194 -82.967182 32.159862 -58.432393 134.349852 -3.619995 168.314847 13.881479 27.474048 -4.958683 168.684689 -3.279151 92.474334 -41.387833 -1.325315 7.734827 171.93288 -46.157268 -62.313411 134.999183 -63.829183 -63.573519 -9.51018 -4.064757 -40.048493 -160.599709 71.159881 -130.863176 -47.036427 62.416232 -3.908537 167.987452 -36.942958 -135.55072 127.786635 8.749603 -168.601354 -94.044722 50.816152 100.280827 -33.714221 76.918275 -78.17583 95.229485 -45.971606 110.440103 -111.413712 36.3549 -51.020475 171.704443 34.334985 4.564745 44.634623 61.558064 175.699223 -134.707067 -36.644035 -67.316219 128.335536 67.120831 53.924852 -173.880657 17.693164 -1.750024 -98.216621 67.323284 -179.403059 -72.438896 -42.800515 -86.352282
0.0795 9.2393 0.2983 -69.523766 80.862288 -69.647613 4.134641 31.57648 -0.0 60.53189 -62.749546 60.905171 -167.842486 80.451203 -118.305494 36.099347 44.992675 -135.634563 -6.137265 1.852146 -33.558687 -12.953195 2.855377 -24.764966 -82.462653 -78.179351 -90.75991 -110.377692 -53.677407 -73.847824 20.683931 52.271474 -175.279609 -158.607751 32.978057 121.413107 -166.15895 6.801654 95.987664 170.070971 -26.017078 101.644672 -5.54729 -47.712192 -9.723484 161.843845 -27.286892 -115.080346 142.411918 11.175894 -81.586096 -72.350348 67.446813 -75.55059 88.29693 23.17326 -65.706663 -146.800336 -83.817534 -98.612078 -97.11355 -1.904378 -70.973728 -109.505057 -35.493134 -61.518237 -75.202093 45.035154 44.781554 -89.258703 -57.621756 -88.218928 24.104457 33.175195 -91.150059 -59.499468 -29.035555 -3.435436 99.662115 4.683135 -108.36346 82.718167 83.162017 -94.613034 -21.701199 3.265552 -8.78407 37.349171 -34.343658 -5.557779 74.197991 15.060561 -175.117827 120.723148 2.26263 -156.132592 -16.709763 0.006225 0.540093 171.627355 10.290587 -123.180283 -67.946447 -28.096832 8.85165 3.011891 52.152556 -6.903589 -20.256724 1.533462 28.880029 45.524915 -41.48076 34.724364 77.453918 33.159453 47.036711 -142.835019 -14.14521 -133.811479 71.434684 13.046789 26.801804 -101.837216 -32.257513 180.0 -125.759329 -74.64246 136.935229 149.024754 8.231635 54.012105
0.2415 11.344700000000001 0.5184 -53.930443 80.246171 -53.170347 2.865297 18.421866 171.000114 -22.300881 40.862308 -135.94367 -165.81454 7.804228 105.560277 47.757936 -33.601522 44.608878 -9.54431 5.263082 -57.669791 -14.925319 6.398363 -46.216706 -100.901782 -42.990503 -144.802182 114.696108 72.754083 -135.86329 177.480251 -75.570237 16.634926 -162.527754 16.081925 117.866649 -166.115514 4.034524 91.127194 -146.12071 28.592248 94.992715 -9.487688 -18.203132 2.956117 179.16117 -5.388893 -111.904211 154.980161 11.264015 -107.986257 -72.606685 53.380313 -83.353378 84.035986 28.372378 -75.653367 172.18227 43.720353 137.892804 -135.2698 7.085095 -83.626742 -27.397976 -28.381924 -22.986693 -42.464573 34.509161 12.088146 139.657082 21.676271 -136.263286 179.484686 -6.274461 101.347323 -68.500941 -15.374785 21.86179 9.107476 62.422419 -16.737699 -170.705993 -43.324476 151.036853 133.405142 -69.222963 -166.370754 72.091833 -79.60849 -135.411078 76.252047 -53.251454 163.80891 137.465156 15.513293 -134.613922 95.526603 64.969658 -89.425223 93.012464 -73.262594 93.724036 -38.183676 -39.660853 5.708643 13.241417 1.805357 -163.879075 -7.239547 11.787478 31.87498 22.116879 -49.160156 82.895436 80.094231 -24.917524 0.626987 -105.808283 -10.277432 -138.694494 9.754666 10.360362 -14.32297 -0.98144 -70.593759 -1.040546 -99.112802 60.199108 -163.741994 144.908018 -40.305399 72.348325
0.4206 11.781899999999998 0.6760999999999999 -46.125743 78.98525 -44.296643 1.456162 15.861709 142.188177 -35.827576 20.509468 -107.625844 -171.377621 -0.261971 101.400107 69.80799 -28.437213 74.091031 -16.344906 12.662239 -75.377649 -40.277159 15.870649 -41.624357 55.685232 75.782045 -31.77959 64.550391 -24.794424 45.009267 176.91096 -8.957065 17.976193 -154.289769 30.436357 102.258897 106.919256 -74.036179 50.500907 -10.998108 38.290226 31.871106 -164.101819 -2.898219 131.612815 97.388145 43.650457 52.99718 53.996848 20.518817 -114.800562 -171.178465 37.357881 0.933906 -1.643961 8.098049 -52.444028 43.016643 29.385184 -14.164185 -160.118869 26.545747 -76.806214 13.541562 -4.459598 -23.636311 -38.473021 32.486593 6.535576 122.291831 32.53724 -131.740281 -25.705914 17.929462 123.829424 -74.69797 41.320314 164.234655 -99.12246 -70.533956 -27.113698 -115.512506 -65.174554 53.74611 144.240957 65.155345 -127.229209 -68.073129 34.175643 134.59289 -31.92978 50.672535 16.015473 -153.695767 -38.232876 -115.120666 110.541803 -10.531613 -15.767889 80.786544 -27.402237 -175.857518 126.459473 5.403583 162.725369 129.056546 -63.052281 -21.821662 51.188918 57.303808 54.640813 -78.642843 -20.29602 -62.591343 29.345831 76.683089 -123.503561 74.698474 -24.518069 47.110072 144.886232 69.919944 36.821472 178.218479 14.176875 7.237608 -107.714392 70.853827 -65.830596 -162.229296 -35.276265 176.313063
0.6194 11.2779 0.7844 -42.363426 79.106898 -40.07341 -0.156975 26.718304 -180.0 -24.281812 42.77838 -141.976378 -174.465716 14.447307 129.497968 41.399812 -67.051862 31.157486 -26.398601 12.67333 -50.673704 -49.029572 11.435073 -24.76547 1.885056 75.190641 1.146974 22.290849 26.305666 61.152906 27.476561 -1.403639 140.028437 -18.05273 10.261471 -31.123718 -173.704343 -10.504446 136.737159 -63.173905 -38.24295 -105.54109 -2.410642 -11.549833 2.21074 97.619832 -0.598545 -138.739302 159.313594 -4.173762 -117.697894 -76.086783 52.468245 -88.547584 -8.155659 9.619633 -40.732688 -74.28004 -50.649839 -106.421754 -94.625629 25.199018 -75.354831 -108.596729 49.857744 -152.086017 37.619639 -79.22762 94.269403 -29.861117 14.268432 18.289957 14.810909 68.073095 -96.268352 -37.96501 7.914344 3.157858 -24.640705 27.255257 -19.005125 -148.20293 -0.587184 -156.283977 -57.823669 48.184337 23.075545 16.288209 73.059015 109.718144 -90.452865 32.981206 13.724683 136.95624 50.337339 -94.405401 -132.587618 -22.235513 -175.814766 -99.864467 -26.116832 165.89257 73.619745 46.045182 173.501783 -166.459601 4.069287 -96.785012 25.395175 34.196673 53.323639 -45.427343 -40.005596 122.347863 -32.380207 -67.087384 -163.925638 -56.408147 57.850831 -95.74184 5.071049 -1.919663 -6.377266 -19.358474 -57.86598 -0.0 -147.438591 87.05326 -78.806018 151.382231 -3.994298 83.514267
0.7054 9.5258 0.7696 -43.077487 79.257869 -40.273905 5.251416 25.744421 78.972879 -47.271002 -25.499415 -65.285568 171.036205 6.775161 -55.782094 -99.583772 70.847361 -85.715637 -30.417562 12.149163 -42.756251 -46.062139 9.823765 -22.857225 -7.008747 32.812021 -3.831758 -99.176664 -14.449621 175.341182 -172.069121 -11.655994 -52.271058 -4.647012 -41.230865 -45.917474 -107.492452 -71.041975 -144.010956 19.99703 65.666465 16.535342 -140.625393 -68.012167 134.907247 42.933989 -52.927869 112.737899 -98.517373 -0.313633 -98.372436 152.448423 10.612757 -49.151492 -10.301606 8.382971 -39.674115 25.372192 10.492312 -24.842032 147.412163 49.386783 -91.672762 -148.743679 12.334011 -144.3644 23.403234 -72.021986 73.856126 127.821262 -33.345665 150.672756 57.865509 23.580648 76.737651 -121.647712 -26.426151 -109.605989 155.196015 -25.011984 -72.651262 -30.087996 10.008107 -24.526754 -89.740405 79.171965 29.678763 -61.904571 7.577025 166.00819 -63.20084 69.960138 -7.244898 129.851552 62.323816 -91.018174 72.919225 1.673759 -13.953434 -150.608283 6.394619 22.861454 -21.718786 84.88814 -70.846989 -129.464365 -28.677061 -79.410393 22.892573 33.496784 50.079417 -41.261415 -43.573389 -31.781678 64.315091 50.505431 27.049839 -148.498788 -36.081349 -153.226715 81.935255 28.888674 50.790635 -125.87946 -1.986967 4.315477 89.347265 65.369373 9.590832 -81.798332 5.435917 -59.192157
